<?xml version="1.0" encoding="UTF-8"?>
<svg width="640" height="480" xmlns="http://www.w3.org/2000/svg" xmlns:svg="http://www.w3.org/2000/svg" preserveAspectRatio="xMidYMid meet">
 <g>
  <title>Layer 1</title>
  <g id="svg_1" fill="#000000" transform="translate(0,0) scale(0.10000000149011612) ">
   <path id="svg_2" d="m1186.37012,4549.19977c-41.95942,-16.69123 -88.79786,-58.91028 -118.0719,-105.0567c-25.37079,-39.27356 -28.29822,-54.00116 -28.29822,-120.76618c0,-108.00226 6.83063,-128.62085 58.54803,-183.60382c62.4513,-66.76501 82.94306,-77.56519 154.17658,-89.34729l61.47546,-9.81836l321.03858,-324.98865c177.59582,-178.69458 322.01428,-328.91589 322.01428,-333.82507c0,-4.90918 -135.63623,-146.29394 -302.49829,-314.18823c-259.56311,-261.16919 -323.96594,-333.82519 -297.61926,-333.82519c2.92736,0 58.54797,19.63671 124.90246,43.20092c65.37866,24.5459 182.47486,64.80127 260.53894,90.3291l141.49109,47.12818l84.89478,82.47461l83.91882,82.47436l1405.15344,-1412.86572l1404.17798,-1413.84741l111.24121,-16.69141c61.47559,-8.83642 156.12793,-25.52783 210.77295,-36.32812c54.64502,-9.81836 124.90234,-18.65479 155.15234,-18.65479l55.62061,0l-5.85449,66.76514c-2.92774,36.32764 -11.70996,94.25635 -19.51612,129.60254c-14.6372,59.89209 -22.44335,108.00244 -44.8872,270.00537l-9.75782,68.729l-1244.14624,1246.93482c-684.03662,686.30517 -1315.37988,1321.55481 -1402.22607,1411.88391l-159.05566,164.94897l80.01562,80.51075l79.04004,80.51074l88.79785,262.15088c47.81421,143.34851 87.82202,266.0783 87.82202,271.9693c0,5.89105 -4.8789,10.80023 -9.75805,10.80023c-5.85474,0 -146.37012,-136.47559 -312.25635,-304.37c-165.88623,-166.91247 -307.3772,-304.36987 -314.20777,-304.36987c-6.83056,0 -158.07983,146.29394 -335.67565,324.98852c-304.44996,305.35181 -323.96595,327.93409 -328.84498,366.22577c-12.68542,93.27466 -66.35449,172.80359 -142.46691,212.07715c-30.24988,14.7276 -57.57227,19.63678 -115.14454,18.65497c-41.95947,0 -86.84631,-4.90924 -100.50756,-9.81842z" fill="#000000"/>
  </g>
 </g>
</svg>